{"title":"Twin Warriors.mp4","uid":11422607,"size":1306112911,"categoryP":"video","categoryS":"movies","magnet":"?xt=urn:btih:f61c2a3caeb1515d386751952e4aea00699d4398&amp;dn=Twin+Warriors.mp4&amp;tr=udp%3A%2F%2Ftracker.openbittorrent.com%3A80&amp;tr=udp%3A%2F%2Fopen.demonii.com%3A1337&amp;tr=udp%3A%2F%2Ftracker.coppersurfer.tk%3A6969&amp;tr=udp%3A%2F%2Fexodus.desync.com%3A6969","seeders":1,"leechers":0,"uploader":"qtwigg","files":-1,"time":1415633481,"description":"Two friends ex Shaolin monks part ways as they brush with the ongoing rebellion against the government. The ambitious one rise up to e a powerful military commander, while his betrayed friend resorts to learn the calm ways of Tai Chi.\n\n Format : MPEG-4\n Format profile : Base Media / Version 2\n Codec ID : mp42\n File size : 1.22 GiB\n Duration : 1h 33mn\n Overall bit rate : 1 868 Kbps\n Encoded date : UTC 2014-11-09 12:19:14\n Tagged date : UTC 2014-11-09 12:56:24\n Writing application : HandBrake 0.9.9 2013052900\n\n Video\n ID : 1\n Format : AVC\n Format/Info : Advanced Video Codec\n Format profile : &lt;a class=&quot;__cf_email__&quot; href=&quot;/cdn-cgi/l/email-protection&quot; data-cfemail=&quot;e8a0818f80a8a4dcc6d9&quot;&gt;[email&amp;#160;protected]&lt;/a&gt;&lt;script cf-hash='f9e31' type=&quot;text/javascript&quot;&gt;\n/* &lt;![CDATA[ */!function(){try{var t=&quot;currentScript&quot;in document?document.currentScript:function(){for(var t=document.getElementsByTagName(&quot;script&quot;),e=t.length;e--;)if(t[e].getAttribute(&quot;cf-hash&quot;))return t[e]}();if(t&amp;&amp;t.previousSibling){var e,r,n,i,c=t.previousSibling,a=c.getAttribute(&quot;data-cfemail&quot;);if(a){for(e=&quot;&quot;,r=parseInt(a.substr(0,2),16),n=2;a.length-n;n+=2)i=parseInt(a.substr(n,2),16)^r,e+=String.fromCharCode(i);e=document.createTextNode(e),c.parentNode.replaceChild(e,c)}}}catch(u){}}();/* ]]&gt; */&lt;/script&gt;\n Format settings, CABAC : Yes\n Format settings, ReFrames : 4 frames\n Codec ID : avc1\n Codec ID/Info : Advanced Video Coding\n Duration : 1h 33mn\n Bit rate : 1 609 Kbps\n Width : 720 pixels\n Height : 544 pixels\n Display aspect ratio : 4:3\n Frame rate mode : Variable\n Frame rate : 23.976 fps\n Minimum frame rate : 23.974 fps\n Maximum frame rate : 23.981 fps\n Color space : YUV\n Chroma subsampling : 4:2:0\n Bit depth : 8 bits\n Scan type : Progressive\n Bits/(Pixel*Frame) : 0.171\n Stream size : 1.05 GiB (86%)\n Writing library : x264 core 130 r2273 b3065e6\n\n Audio\n ID : 2\n Format : AC-3\n Format/Info : Audio Coding 3\n Format profile : Dolby Digital\n Mode extension : CM (complete main)\n Format settings, Endianness : Big\n Codec ID : ac-3\n Duration : 1h 33mn\n Bit rate mode : Constant\n Bit rate : 256 Kbps\n Channel(s) : 2 channels\n Channel positions : Front: L R\n Sampling rate : 48.0 KHz\n Bit depth : 16 bits\n Compression mode : Lossy\n Stream size : 171 MiB (14%)\n Language : English\n Encoded date : UTC 2014-11-09 12:19:14\n Tagged date : UTC 2014-11-09 12:56:23","torrent":{"xt":"urn:btih:f61c2a3caeb1515d386751952e4aea00699d4398","amp;dn":"Twin+Warriors.mp4","amp;tr":["udp%3A%2F%2Ftracker.openbittorrent.com%3A80","udp%3A%2F%2Fopen.demonii.com%3A1337","udp%3A%2F%2Ftracker.coppersurfer.tk%3A6969","udp%3A%2F%2Fexodus.desync.com%3A6969"],"infoHash":"f61c2a3caeb1515d386751952e4aea00699d4398","infoHashBuffer":{"type":"Buffer","data":[246,28,42,60,174,177,81,93,56,103,81,149,46,74,234,0,105,157,67,152]},"announce":[],"urlList":[]}}